<?xml version="1.0" encoding="UTF-8" standalone="no"?>
<svg
   xmlns:dc="http://purl.org/dc/elements/1.1/"
   xmlns:cc="http://creativecommons.org/ns#"
   xmlns:rdf="http://www.w3.org/1999/02/22-rdf-syntax-ns#"
   xmlns:svg="http://www.w3.org/2000/svg"
   xmlns="http://www.w3.org/2000/svg"
   xmlns:sodipodi="http://sodipodi.sourceforge.net/DTD/sodipodi-0.dtd"
   xmlns:inkscape="http://www.inkscape.org/namespaces/inkscape"
   height="480"
   viewBox="0 0 240 240"
   width="480"
   id="svg2"
   version="1.1"
   inkscape:version="0.91 r13725"
   sodipodi:docname="jProxy.svg"
   style="fill:#ffffff">
  <metadata
     id="metadata12">
    <rdf:RDF>
      <cc:Work
         rdf:about="">
        <dc:format>image/svg+xml</dc:format>
        <dc:type
           rdf:resource="http://purl.org/dc/dcmitype/StillImage" />
        <dc:title></dc:title>
      </cc:Work>
    </rdf:RDF>
  </metadata>
  <defs
     id="defs10" />
  <sodipodi:namedview
     pagecolor="#000000"
     bordercolor="#666666"
     borderopacity="1"
     objecttolerance="10"
     gridtolerance="10"
     guidetolerance="10000"
     inkscape:pageopacity="0"
     inkscape:pageshadow="2"
     inkscape:window-width="1920"
     inkscape:window-height="1023"
     id="namedview8"
     showgrid="false"
     inkscape:zoom="2.4583333"
     inkscape:cx="187.41126"
     inkscape:cy="323.29861"
     inkscape:window-x="0"
     inkscape:window-y="27"
     inkscape:window-maximized="1"
     inkscape:current-layer="g4160"
     showguides="true"
     inkscape:guide-bbox="true"
     inkscape:snap-to-guides="true"
     inkscape:snap-nodes="true"
     inkscape:object-paths="false"
     inkscape:object-nodes="true">
    <sodipodi:guide
       position="88.779661,156.45763"
       orientation="0,1"
       id="guide4214" />
    <sodipodi:guide
       position="87.711864,169.52542"
       orientation="1,0"
       id="guide4220" />
  </sodipodi:namedview>
  <path
     d="m 0,216 24,0 0,24 -24,0 z"
     id="path4"
     inkscape:connector-curvature="0"
     style="fill:none" />
  <g
     id="g4182"
     transform="translate(0,36.249999)">
    <path
       inkscape:connector-curvature="0"
       id="path6"
       d="m 120,70 c -27.599999,0 -49.999999,22.4 -49.999999,50 0,27.6 22.4,50 49.999999,50 27.6,0 50,-22.4 50,-50 0,-27.6 -22.4,-50 -50,-50 z m -5,89.65 C 95.250001,157.2 80.000001,140.4 80.000001,120 c 0,-3.1 0.4,-6.05 1.05,-8.95 L 105,135 l 0,5 c 0,5.5 4.5,10 10,10 l 0,9.65 z m 34.5,-12.7 C 148.2,142.9 144.5,140 140,140 l -5,0 0,-15 c 0,-2.75 -2.25,-5 -5,-5 l -30.000001,0 0,-10 L 110,110 c 2.75,0 5,-2.25 5,-5 l 0,-10 10,0 c 5.5,0 10,-4.5 10,-10 l 0,-2.05 c 14.65,5.95 25,20.3 25,37.05 0,10.4 -4,19.85 -10.5,26.95 z"
       style="fill:#4caf50;fill-opacity:1" />
    <text
       transform="matrix(0.70710678,0.70710678,-0.70710678,0.70710678,0,0)"
       sodipodi:linespacing="125%"
       id="text4140"
       y="31.395542"
       x="162.52142"
       style="font-style:normal;font-variant:normal;font-weight:normal;font-stretch:normal;font-size:9.33089352px;line-height:125%;font-family:Montserrat;-inkscape-font-specification:'Montserrat, Normal';text-align:start;letter-spacing:0px;word-spacing:0px;writing-mode:lr-tb;text-anchor:start;fill:#000000;fill-opacity:1;stroke:none;stroke-width:1px;stroke-linecap:butt;stroke-linejoin:miter;stroke-opacity:1"
       xml:space="preserve"><tspan
         style="font-size:113.13708496px;fill:#2196f3;fill-opacity:1"
         y="31.395542"
         x="162.52142"
         id="tspan4142"
         sodipodi:role="line">j</tspan></text>
  </g>
  <g
     style="fill:#000000"
     id="g4160"
     transform="matrix(8.074432,0,0,8.074432,-123.6703,61.958542)">
    <g
       style="fill:#ffffff"
       id="g4176"
       transform="matrix(1.2900804,0,0,1.2900804,29.394094,-11.206113)">
      <path
         id="path4168"
         d="m 6.6076505,10.758348 -1,0 0,-2 c 0,-2.7599998 -2.24,-4.9999998 -5.00000004,-4.9999998 -2.76000026,0 -5.00000026,2.24 -5.00000026,4.9999998 l 0,2 -1,0 c -1.1,0 -2,0.9 -2,2 l 0,10 c 0,1.1 0.9,2 2,2 l 12.0000003,0 c 1.1,0 2,-0.9 2,-2 l 0,-10 c 0,-1.1 -0.9,-2 -2,-2 z M 0.60765046,5.6583482 c 1.71000004,0 3.10000004,1.3899998 3.10000004,3.0999998 l 0,2 -6.1996613,6.7e-5 c 0,-1.9999996 0,-0.9597682 -3.39e-4,-2.000067 0,-1.71 1.39,-3.0999998 3.10000026,-3.0999998 z m 6.00000004,17.0999998 -12.0000003,0 0,-10 12.0000003,0 z"
         inkscape:connector-curvature="0"
         sodipodi:nodetypes="scssscsssssssssscccsccccc" />
    </g>
  </g>
</svg>
